<mxfile host="app.diagrams.net" agent="Mozilla/5.0 (Windows NT 10.0; Win64; x64) AppleWebKit/537.36 (KHTML, like Gecko) Chrome/133.0.0.0 Safari/537.36 OPR/118.0.0.0" version="27.0.5">
  <diagram id="C5RBs43oDa-KdzZeNtuy" name="Page-1">
    <mxGraphModel dx="1626" dy="901" grid="1" gridSize="10" guides="1" tooltips="1" connect="1" arrows="1" fold="1" page="1" pageScale="1" pageWidth="827" pageHeight="1169" math="0" shadow="0">
      <root>
        <mxCell id="WIyWlLk6GJQsqaUBKTNV-0" />
        <mxCell id="WIyWlLk6GJQsqaUBKTNV-1" parent="WIyWlLk6GJQsqaUBKTNV-0" />
        <mxCell id="BaLjIKHQeb6vS30PU7nf-0" value="" style="ellipse;whiteSpace=wrap;html=1;" vertex="1" parent="WIyWlLk6GJQsqaUBKTNV-1">
          <mxGeometry x="340" y="40" width="120" height="50" as="geometry" />
        </mxCell>
        <mxCell id="BaLjIKHQeb6vS30PU7nf-2" value="Début" style="text;strokeColor=none;fillColor=none;html=1;fontSize=24;fontStyle=1;verticalAlign=middle;align=center;" vertex="1" parent="WIyWlLk6GJQsqaUBKTNV-1">
          <mxGeometry x="350" y="45" width="100" height="40" as="geometry" />
        </mxCell>
        <mxCell id="BaLjIKHQeb6vS30PU7nf-3" value="" style="endArrow=classic;html=1;rounded=0;" edge="1" parent="WIyWlLk6GJQsqaUBKTNV-1">
          <mxGeometry width="50" height="50" relative="1" as="geometry">
            <mxPoint x="399.29" y="90" as="sourcePoint" />
            <mxPoint x="400" y="120" as="targetPoint" />
          </mxGeometry>
        </mxCell>
        <mxCell id="BaLjIKHQeb6vS30PU7nf-4" value="" style="rounded=1;whiteSpace=wrap;html=1;fillColor=#BDBDBD;" vertex="1" parent="WIyWlLk6GJQsqaUBKTNV-1">
          <mxGeometry x="330" y="120" width="140" height="40" as="geometry" />
        </mxCell>
        <mxCell id="BaLjIKHQeb6vS30PU7nf-5" value="&lt;font style=&quot;font-size: 15px; color: rgb(255, 255, 255);&quot;&gt;&lt;b&gt;Entrée utilisateur&lt;/b&gt;&lt;/font&gt;" style="text;html=1;align=center;verticalAlign=middle;whiteSpace=wrap;rounded=0;" vertex="1" parent="WIyWlLk6GJQsqaUBKTNV-1">
          <mxGeometry x="335" y="125" width="130" height="30" as="geometry" />
        </mxCell>
        <mxCell id="BaLjIKHQeb6vS30PU7nf-6" value="" style="endArrow=classic;html=1;rounded=0;" edge="1" parent="WIyWlLk6GJQsqaUBKTNV-1">
          <mxGeometry width="50" height="50" relative="1" as="geometry">
            <mxPoint x="399.65000000000003" y="160" as="sourcePoint" />
            <mxPoint x="400.36" y="190" as="targetPoint" />
          </mxGeometry>
        </mxCell>
        <mxCell id="BaLjIKHQeb6vS30PU7nf-7" value="" style="html=1;whiteSpace=wrap;aspect=fixed;shape=isoRectangle;fillColor=#FF9999;" vertex="1" parent="WIyWlLk6GJQsqaUBKTNV-1">
          <mxGeometry x="325" y="190" width="150" height="90" as="geometry" />
        </mxCell>
        <mxCell id="BaLjIKHQeb6vS30PU7nf-8" value="&lt;b style=&quot;&quot;&gt;&lt;font style=&quot;color: rgb(1, 1, 1);&quot;&gt;UserQuery.length &amp;lt; 3&lt;/font&gt;&lt;/b&gt;" style="text;html=1;align=center;verticalAlign=middle;whiteSpace=wrap;rounded=0;" vertex="1" parent="WIyWlLk6GJQsqaUBKTNV-1">
          <mxGeometry x="335" y="220" width="130" height="30" as="geometry" />
        </mxCell>
        <mxCell id="BaLjIKHQeb6vS30PU7nf-12" value="" style="edgeStyle=segmentEdgeStyle;endArrow=classic;html=1;curved=0;rounded=0;endSize=8;startSize=8;exitX=0.033;exitY=0.444;exitDx=0;exitDy=0;exitPerimeter=0;" edge="1" parent="WIyWlLk6GJQsqaUBKTNV-1" source="BaLjIKHQeb6vS30PU7nf-7">
          <mxGeometry width="50" height="50" relative="1" as="geometry">
            <mxPoint x="260" y="229.77999999999997" as="sourcePoint" />
            <mxPoint x="182" y="270" as="targetPoint" />
          </mxGeometry>
        </mxCell>
        <mxCell id="BaLjIKHQeb6vS30PU7nf-13" value="" style="html=1;whiteSpace=wrap;aspect=fixed;shape=isoRectangle;fillColor=#FF9999;" vertex="1" parent="WIyWlLk6GJQsqaUBKTNV-1">
          <mxGeometry x="110" y="270" width="150" height="90" as="geometry" />
        </mxCell>
        <mxCell id="BaLjIKHQeb6vS30PU7nf-14" value="&lt;font color=&quot;#010101&quot;&gt;&lt;b&gt;filteredRecipes = recipes&lt;/b&gt;&lt;/font&gt;" style="text;html=1;align=center;verticalAlign=middle;whiteSpace=wrap;rounded=0;" vertex="1" parent="WIyWlLk6GJQsqaUBKTNV-1">
          <mxGeometry x="120" y="300" width="130" height="30" as="geometry" />
        </mxCell>
        <mxCell id="BaLjIKHQeb6vS30PU7nf-15" value="" style="edgeStyle=segmentEdgeStyle;endArrow=classic;html=1;curved=0;rounded=0;endSize=8;startSize=8;" edge="1" parent="WIyWlLk6GJQsqaUBKTNV-1">
          <mxGeometry width="50" height="50" relative="1" as="geometry">
            <mxPoint x="475" y="230" as="sourcePoint" />
            <mxPoint x="614.95" y="270" as="targetPoint" />
            <Array as="points">
              <mxPoint x="615" y="230" />
            </Array>
          </mxGeometry>
        </mxCell>
        <mxCell id="BaLjIKHQeb6vS30PU7nf-16" value="" style="html=1;whiteSpace=wrap;aspect=fixed;shape=isoRectangle;fillColor=#FF9999;" vertex="1" parent="WIyWlLk6GJQsqaUBKTNV-1">
          <mxGeometry x="540" y="270" width="150" height="90" as="geometry" />
        </mxCell>
        <mxCell id="BaLjIKHQeb6vS30PU7nf-17" value="&lt;font color=&quot;#010101&quot;&gt;&lt;b&gt;filteredRecipes = []&lt;/b&gt;&lt;/font&gt;" style="text;html=1;align=center;verticalAlign=middle;whiteSpace=wrap;rounded=0;" vertex="1" parent="WIyWlLk6GJQsqaUBKTNV-1">
          <mxGeometry x="550" y="300" width="130" height="30" as="geometry" />
        </mxCell>
        <mxCell id="BaLjIKHQeb6vS30PU7nf-18" value="" style="endArrow=classic;html=1;rounded=0;" edge="1" parent="WIyWlLk6GJQsqaUBKTNV-1">
          <mxGeometry width="50" height="50" relative="1" as="geometry">
            <mxPoint x="614.58" y="360" as="sourcePoint" />
            <mxPoint x="615.29" y="390" as="targetPoint" />
          </mxGeometry>
        </mxCell>
        <mxCell id="BaLjIKHQeb6vS30PU7nf-19" value="" style="ellipse;shape=doubleEllipse;whiteSpace=wrap;html=1;" vertex="1" parent="WIyWlLk6GJQsqaUBKTNV-1">
          <mxGeometry x="490" y="390" width="260" height="100" as="geometry" />
        </mxCell>
        <mxCell id="BaLjIKHQeb6vS30PU7nf-20" value="&lt;font color=&quot;#010101&quot;&gt;&lt;b&gt;Boucle for sur recipes :&lt;/b&gt;&lt;/font&gt;&lt;div&gt;&lt;font color=&quot;#010101&quot;&gt;&lt;b&gt;si name, description ou un ingrédient contient userQuery -&amp;gt; ajouter à la liste&lt;br&gt;&lt;/b&gt;&lt;/font&gt;&lt;div&gt;&lt;font color=&quot;#010101&quot;&gt;&lt;b&gt;&lt;br&gt;&lt;/b&gt;&lt;/font&gt;&lt;/div&gt;&lt;/div&gt;" style="text;html=1;align=center;verticalAlign=middle;whiteSpace=wrap;rounded=0;" vertex="1" parent="WIyWlLk6GJQsqaUBKTNV-1">
          <mxGeometry x="502.5" y="430" width="225" height="30" as="geometry" />
        </mxCell>
        <mxCell id="BaLjIKHQeb6vS30PU7nf-27" value="" style="line;strokeWidth=2;direction=south;html=1;" vertex="1" parent="WIyWlLk6GJQsqaUBKTNV-1">
          <mxGeometry x="180" y="360" width="10" height="160" as="geometry" />
        </mxCell>
        <mxCell id="BaLjIKHQeb6vS30PU7nf-28" value="" style="line;strokeWidth=2;direction=south;html=1;" vertex="1" parent="WIyWlLk6GJQsqaUBKTNV-1">
          <mxGeometry x="610" y="490" width="10" height="30" as="geometry" />
        </mxCell>
        <mxCell id="BaLjIKHQeb6vS30PU7nf-29" value="" style="line;strokeWidth=2;html=1;" vertex="1" parent="WIyWlLk6GJQsqaUBKTNV-1">
          <mxGeometry x="190" y="520" width="420" height="10" as="geometry" />
        </mxCell>
        <mxCell id="BaLjIKHQeb6vS30PU7nf-30" value="" style="endArrow=classic;html=1;rounded=0;" edge="1" parent="WIyWlLk6GJQsqaUBKTNV-1">
          <mxGeometry width="50" height="50" relative="1" as="geometry">
            <mxPoint x="399.41" y="530" as="sourcePoint" />
            <mxPoint x="400.12" y="560" as="targetPoint" />
          </mxGeometry>
        </mxCell>
        <mxCell id="BaLjIKHQeb6vS30PU7nf-31" value="" style="html=1;whiteSpace=wrap;aspect=fixed;shape=isoRectangle;fillColor=#FF9999;" vertex="1" parent="WIyWlLk6GJQsqaUBKTNV-1">
          <mxGeometry x="306.25" y="552.5" width="187.5" height="112.5" as="geometry" />
        </mxCell>
        <mxCell id="BaLjIKHQeb6vS30PU7nf-32" value="&lt;font color=&quot;#010101&quot;&gt;&lt;b&gt;filteredRecipes.length == 0&lt;/b&gt;&lt;/font&gt;" style="text;html=1;align=center;verticalAlign=middle;whiteSpace=wrap;rounded=0;" vertex="1" parent="WIyWlLk6GJQsqaUBKTNV-1">
          <mxGeometry x="320" y="593.75" width="160" height="30" as="geometry" />
        </mxCell>
        <mxCell id="BaLjIKHQeb6vS30PU7nf-33" value="" style="edgeStyle=segmentEdgeStyle;endArrow=classic;html=1;curved=0;rounded=0;endSize=8;startSize=8;exitX=0.033;exitY=0.444;exitDx=0;exitDy=0;exitPerimeter=0;" edge="1" parent="WIyWlLk6GJQsqaUBKTNV-1">
          <mxGeometry width="50" height="50" relative="1" as="geometry">
            <mxPoint x="306.25" y="610" as="sourcePoint" />
            <mxPoint x="158.25" y="650" as="targetPoint" />
          </mxGeometry>
        </mxCell>
        <mxCell id="BaLjIKHQeb6vS30PU7nf-34" value="" style="edgeStyle=segmentEdgeStyle;endArrow=classic;html=1;curved=0;rounded=0;endSize=8;startSize=8;" edge="1" parent="WIyWlLk6GJQsqaUBKTNV-1">
          <mxGeometry width="50" height="50" relative="1" as="geometry">
            <mxPoint x="493.75" y="610" as="sourcePoint" />
            <mxPoint x="633.7" y="650" as="targetPoint" />
            <Array as="points">
              <mxPoint x="633.75" y="610" />
            </Array>
          </mxGeometry>
        </mxCell>
      </root>
    </mxGraphModel>
  </diagram>
</mxfile>
